<?xml version="1.0" encoding="UTF-8"?>
<svg xmlns="http://www.w3.org/2000/svg" xmlns:xlink="http://www.w3.org/1999/xlink" width="14px" height="14px" viewBox="0 0 14 14" version="1.1">
<g id="surface1">
<path style=" stroke:none;fill-rule:nonzero;fill:rgb(0%,0%,0%);fill-opacity:1;" d="M 12.316406 1.25 C 11.488281 0.527344 10.3125 0.0976562 9.167969 0.0976562 C 8.410156 0.0976562 7.667969 0.28125 7 0.636719 C 6.332031 0.28125 5.589844 0.0976562 4.832031 0.0976562 C 3.6875 0.0976562 2.511719 0.527344 1.683594 1.25 C 1.085938 1.769531 0.636719 2.425781 0.347656 3.195312 C 0.09375 3.875 -0.0195312 4.613281 0.00390625 5.390625 C 0.046875 6.839844 0.570312 8.304688 1.503906 9.628906 C 2.074219 10.433594 2.953125 11.253906 4.191406 12.144531 C 5.027344 12.75 5.742188 13.164062 5.769531 13.183594 L 7 13.902344 L 8.230469 13.183594 C 8.261719 13.164062 8.972656 12.75 9.808594 12.144531 C 11.046875 11.253906 11.925781 10.433594 12.496094 9.628906 C 13.433594 8.304688 13.953125 6.839844 13.996094 5.390625 C 14.019531 4.613281 13.90625 3.875 13.652344 3.195312 C 13.363281 2.425781 12.914062 1.769531 12.316406 1.25 Z M 10.507812 8.222656 C 9.53125 9.601562 7 11.082031 7 11.082031 C 7 11.082031 4.46875 9.601562 3.492188 8.222656 C 2.128906 6.296875 2.109375 4.109375 3.28125 3.085938 C 3.609375 2.800781 4.1875 2.53125 4.832031 2.53125 C 5.566406 2.53125 6.386719 2.886719 7 3.980469 C 7.613281 2.886719 8.433594 2.53125 9.167969 2.53125 C 9.8125 2.53125 10.390625 2.800781 10.71875 3.085938 C 11.890625 4.109375 11.871094 6.296875 10.507812 8.222656 Z M 10.507812 8.222656 "/>
</g>
</svg>
