<?xml version="1.0" encoding="UTF-8"?>
<svg xmlns="http://www.w3.org/2000/svg" xmlns:xlink="http://www.w3.org/1999/xlink" width="14px" height="14px" viewBox="0 0 14 14" version="1.1">
<g id="surface1">
<path style=" stroke:none;fill-rule:nonzero;fill:rgb(100%,40.000001%,27.843139%);fill-opacity:1;" d="M 12.980469 2.039062 C 12.28125 1.25 11.320312 0.816406 10.265625 0.816406 C 9.441406 0.816406 8.667969 1.152344 8.03125 1.789062 C 7.605469 2.214844 7.257812 2.753906 7 3.375 C 6.742188 2.753906 6.394531 2.214844 5.96875 1.789062 C 5.332031 1.152344 4.558594 0.816406 3.734375 0.816406 C 2.679688 0.816406 1.71875 1.25 1.019531 2.039062 C 0.371094 2.769531 0 3.769531 0 4.785156 C 0 6 0.367188 7.199219 1.09375 8.347656 C 1.667969 9.261719 2.464844 10.144531 3.46875 10.972656 C 5.164062 12.375 6.835938 13.132812 6.90625 13.164062 C 6.964844 13.191406 7.035156 13.191406 7.09375 13.164062 C 7.164062 13.132812 8.835938 12.375 10.53125 10.972656 C 11.535156 10.144531 12.332031 9.261719 12.90625 8.347656 C 13.632812 7.199219 14 6 14 4.785156 C 14 3.769531 13.628906 2.769531 12.980469 2.039062 Z M 12.980469 2.039062 "/>
<path style=" stroke:none;fill-rule:nonzero;fill:rgb(89.019608%,32.549021%,21.176471%);fill-opacity:1;" d="M 4.402344 10.972656 C 3.398438 10.144531 2.601562 9.261719 2.027344 8.347656 C 1.300781 7.199219 0.933594 6 0.933594 4.785156 C 0.933594 3.769531 1.304688 2.769531 1.953125 2.039062 C 2.539062 1.375 3.316406 0.964844 4.171875 0.847656 C 4.027344 0.828125 3.882812 0.816406 3.734375 0.816406 C 2.679688 0.816406 1.71875 1.25 1.019531 2.039062 C 0.371094 2.769531 0 3.769531 0 4.785156 C 0 6 0.367188 7.199219 1.09375 8.347656 C 1.667969 9.261719 2.464844 10.144531 3.46875 10.972656 C 5.164062 12.375 6.835938 13.132812 6.90625 13.164062 C 6.964844 13.191406 7.035156 13.191406 7.09375 13.164062 C 7.113281 13.15625 7.25 13.09375 7.464844 12.984375 C 6.871094 12.679688 5.644531 12 4.402344 10.972656 Z M 4.402344 10.972656 "/>
</g>
</svg>
